<?xml version="1.0" encoding="UTF-8" standalone="no"?>
<!DOCTYPE svg PUBLIC "-//W3C//DTD SVG 1.1//EN" "http://www.w3.org/Graphics/SVG/1.1/DTD/svg11.dtd">
<svg width="100%" height="100%" viewBox="0 0 800 574" version="1.1" xmlns="http://www.w3.org/2000/svg" xmlns:xlink="http://www.w3.org/1999/xlink" xml:space="preserve" xmlns:serif="http://www.serif.com/" style="fill-rule:evenodd;clip-rule:evenodd;stroke-miterlimit:10;">
    <path d="M424.4,459.9C424.4,442.9 438.2,429.1 455.2,429.1" style="fill:none;fill-rule:nonzero;stroke:rgb(64,64,64);stroke-width:4px;"/>
    <path d="M254.1,459.9C254.1,442.9 240.3,429.1 223.3,429.1M164.5,552.1L378.4,552.1" style="fill:none;fill-rule:nonzero;stroke:rgb(64,64,64);stroke-width:4px;"/>
    <circle cx="315.8" cy="552.1" r="15.8" style="fill:rgb(78,209,161);stroke:rgb(64,64,64);stroke-width:4px;"/>
    <circle cx="362.7" cy="552.1" r="15.8" style="fill:rgb(78,209,161);stroke:rgb(64,64,64);stroke-width:4px;"/>
    <circle cx="242.5" cy="552.1" r="15.8" style="fill:rgb(78,209,161);stroke:rgb(64,64,64);stroke-width:4px;"/>
    <path d="M776.2,429.1L179.9,429.1" style="fill:none;fill-rule:nonzero;stroke:rgb(64,64,64);stroke-width:4px;"/>
    <circle cx="485.2" cy="429.1" r="15.8" style="fill:rgb(177,139,232);stroke:rgb(64,64,64);stroke-width:4px;"/>
    <circle cx="315.8" cy="429.1" r="15.8" style="fill:rgb(177,139,232);stroke:rgb(64,64,64);stroke-width:4px;"/>
    <circle cx="776.2" cy="429.1" r="15.8" style="fill:rgb(177,139,232);stroke:rgb(64,64,64);stroke-width:4px;"/>
    <path d="M254.1,459.9C254.1,476.9 267.9,490.7 284.9,490.7L392.8,490.7M84.9,275C84.9,292 98.7,305.8 115.7,305.8L133,305.8" style="fill:none;fill-rule:nonzero;stroke:rgb(64,64,64);stroke-width:4px;"/>
    <circle cx="315.8" cy="490.6" r="15.8" style="fill:rgb(78,209,161);stroke:rgb(64,64,64);stroke-width:4px;"/>
    <circle cx="362.7" cy="490.6" r="15.8" style="fill:rgb(78,209,161);stroke:rgb(64,64,64);stroke-width:4px;"/>
    <path d="M392.8,490.6L393.7,490.6C410.7,490.6 424.5,476.8 424.5,459.8" style="fill:none;fill-rule:nonzero;stroke:rgb(64,64,64);stroke-width:4px;"/>
    <path d="M57.2,306.1L21.5,306.1" style="fill:none;fill-rule:nonzero;stroke:rgb(204,204,204);stroke-width:4px;stroke-linecap:round;stroke-linejoin:round;stroke-miterlimit:4;stroke-dasharray:0,14.31;"/>
    <path d="M762.1,306.1L244.9,306.1" style="fill:none;fill-rule:nonzero;stroke:rgb(204,204,204);stroke-width:4px;stroke-linecap:round;stroke-linejoin:round;stroke-miterlimit:4;stroke-dasharray:0,14.17;"/>
    <path d="M531.5,367.6L21.3,367.6" style="fill:none;fill-rule:nonzero;stroke:rgb(204,204,204);stroke-width:4px;stroke-linecap:round;stroke-linejoin:round;stroke-miterlimit:4;stroke-dasharray:0,13.98;"/>
    <path d="M761.5,367.6L709.7,367.6" style="fill:none;fill-rule:nonzero;stroke:rgb(204,204,204);stroke-width:4px;stroke-linecap:round;stroke-linejoin:round;stroke-miterlimit:4;stroke-dasharray:0,14.79;"/>
    <path d="M84.9,275.4C84.9,258.4 71.1,244.6 54.1,244.6M211.7,275C211.7,292 197.9,305.8 180.9,305.8L132.9,305.8M211.7,275.4C211.7,258.4 225.5,244.6 242.5,244.6M273.2,429.1C256.2,429.1 242.4,415.3 242.4,398.3L242.4,336.5M242.4,336.5C242.4,319.5 228.6,305.7 211.6,305.7" style="fill:none;fill-rule:nonzero;stroke:rgb(64,64,64);stroke-width:4px;"/>
    <circle cx="148.7" cy="552.1" r="15.8" style="fill:rgb(78,209,161);stroke:rgb(64,64,64);stroke-width:4px;"/>
    <path d="M645,244.6L39.2,244.6" style="fill:none;fill-rule:nonzero;stroke:rgb(64,64,64);stroke-width:4px;"/>
    <circle cx="23.5" cy="244.6" r="15.8" style="fill:rgb(179,227,255);stroke:rgb(64,64,64);stroke-width:4px;"/>
    <circle cx="315.8" cy="244.6" r="15.8" style="fill:rgb(179,227,255);stroke:rgb(64,64,64);stroke-width:4px;"/>
    <rect x="294.6" y="139.1" width="42.5" height="37.5" style="fill:rgb(179,227,255);fill-rule:nonzero;stroke:rgb(64,64,64);stroke-width:4px;stroke-linecap:round;stroke-linejoin:round;"/>
    <path d="M306.5,162.4L305.3,162.4L302.8,156.1L304.2,156.1L306,160.9L307.8,156.1L309.1,156.1L306.5,162.4ZM311.2,155.1C311.7,154.3 312.6,153.7 313.8,153.7C315,153.7 315.8,154.2 316.4,155.1C317,155.9 317.2,157 317.2,158.2C317.2,159.4 317,160.4 316.4,161.3C315.9,162.1 315,162.7 313.8,162.7C312.6,162.7 311.8,162.2 311.2,161.3C310.6,160.5 310.4,159.4 310.4,158.2C310.4,157 310.6,155.9 311.2,155.1ZM312.4,160.9C312.7,161.2 313.1,161.4 313.7,161.4C314.3,161.4 314.7,161.2 315,160.9C315.5,160.4 315.7,159.5 315.7,158.2C315.7,156.9 315.5,156 315,155.5C314.7,155.2 314.3,155 313.7,155C313.1,155 312.7,155.2 312.4,155.5C311.9,156 311.7,156.9 311.7,158.2C311.7,159.5 311.9,160.3 312.4,160.9ZM319.7,160.6C320.2,160.6 320.6,161 320.6,161.5C320.6,162 320.2,162.4 319.7,162.4C319.2,162.4 318.8,162 318.8,161.5C318.8,161 319.2,160.6 319.7,160.6ZM322.7,156.8L322.7,156.5C322.7,155.1 323.8,153.8 325.6,153.8C327.4,153.8 328.4,155 328.4,156.4C328.4,157.5 327.8,158.4 326.8,159L325.1,160.1C324.6,160.4 324.2,160.8 324.1,161.3L328.4,161.3L328.4,162.5L322.5,162.5C322.5,161.1 323.1,160.1 324.5,159.1L325.9,158.2C326.7,157.7 327.1,157.1 327.1,156.4C327.1,155.6 326.6,154.9 325.5,154.9C324.4,154.9 323.9,155.7 323.9,156.6L323.9,157L322.7,156.8Z" style="fill:rgb(64,64,64);fill-rule:nonzero;"/>
    <path d="M315.8,210.7L315.8,193.1M324,204.2L315.8,212.4L307.7,204.2" style="fill:none;fill-rule:nonzero;stroke:rgb(64,64,64);stroke-width:4px;stroke-linecap:round;stroke-linejoin:round;"/>
    <rect x="623.8" y="139.1" width="42.5" height="37.5" style="fill:rgb(179,227,255);fill-rule:nonzero;stroke:rgb(64,64,64);stroke-width:4px;stroke-linecap:round;stroke-linejoin:round;"/>
    <path d="M636.8,162.4L635.6,162.4L633.1,156.1L634.5,156.1L636.3,160.9L638.1,156.1L639.4,156.1L636.8,162.4ZM642.4,162.4L642.4,156.5L640.4,156.5L640.4,155.6C641.6,155.6 642.4,154.9 642.6,154L643.7,154L643.7,162.4L642.4,162.4ZM647,160.6C647.5,160.6 647.9,161 647.9,161.5C647.9,162 647.5,162.4 647,162.4C646.5,162.4 646.1,162 646.1,161.5C646.1,161 646.5,160.6 647,160.6ZM650.6,155.1C651.1,154.3 652,153.7 653.2,153.7C654.4,153.7 655.2,154.2 655.8,155.1C656.4,155.9 656.6,157 656.6,158.2C656.6,159.4 656.4,160.4 655.8,161.3C655.3,162.1 654.4,162.7 653.2,162.7C652,162.7 651.2,162.2 650.6,161.3C650,160.5 649.8,159.4 649.8,158.2C649.8,157 650.1,155.9 650.6,155.1ZM651.9,160.9C652.2,161.2 652.6,161.4 653.2,161.4C653.8,161.4 654.2,161.2 654.5,160.9C655,160.4 655.2,159.5 655.2,158.2C655.2,156.9 655,156 654.5,155.5C654.2,155.2 653.8,155 653.2,155C652.6,155 652.2,155.2 651.9,155.5C651.4,156 651.2,156.9 651.2,158.2C651.2,159.5 651.4,160.3 651.9,160.9Z" style="fill:rgb(64,64,64);fill-rule:nonzero;"/>
    <path d="M645,210.7L645,193.1M653.2,204.2L645,212.4L636.9,204.2" style="fill:none;fill-rule:nonzero;stroke:rgb(64,64,64);stroke-width:4px;stroke-linecap:round;stroke-linejoin:round;"/>
    <path d="M64.5,429.1L20.6,429.1" style="fill:none;fill-rule:nonzero;stroke:rgb(204,204,204);stroke-width:4px;stroke-linecap:round;stroke-linejoin:round;stroke-miterlimit:4;stroke-dasharray:0,12.54;"/>
    <path d="M246.9,490.6L21.2,490.6" style="fill:none;fill-rule:nonzero;stroke:rgb(204,204,204);stroke-width:4px;stroke-linecap:round;stroke-linejoin:round;stroke-miterlimit:4;stroke-dasharray:0,13.68;"/>
    <path d="M762.5,490.6L425.1,490.6" style="fill:none;fill-rule:nonzero;stroke:rgb(204,204,204);stroke-width:4px;stroke-linecap:round;stroke-linejoin:round;stroke-miterlimit:4;stroke-dasharray:0,13.77;"/>
    <path d="M109.9,552.1L21.1,552.1" style="fill:none;fill-rule:nonzero;stroke:rgb(204,204,204);stroke-width:4px;stroke-linecap:round;stroke-linejoin:round;stroke-miterlimit:4;stroke-dasharray:0,13.65;"/>
    <path d="M762.3,552.1L393.8,552.1" style="fill:none;fill-rule:nonzero;stroke:rgb(204,204,204);stroke-width:4px;stroke-linecap:round;stroke-linejoin:round;stroke-miterlimit:4;stroke-dasharray:0,13.91;"/>
    <rect x="145.8" y="5.2" width="96.2" height="50" style="fill:rgb(252,131,99);fill-rule:nonzero;stroke:rgb(64,64,64);stroke-width:4px;stroke-linecap:round;stroke-linejoin:round;"/>
    <path d="M84.9,275L84.9,398.4C84.9,415.4 98.7,429.2 115.7,429.2L211.4,429.2" style="fill:none;fill-rule:nonzero;stroke:rgb(64,64,64);stroke-width:4px;"/>
    <circle cx="195.6" cy="429.1" r="15.7" style="fill:rgb(177,139,232);stroke:rgb(64,64,64);stroke-width:4px;"/>
    <circle cx="148.7" cy="429.1" r="15.8" style="fill:rgb(177,139,232);stroke:rgb(64,64,64);stroke-width:4px;"/>
    <circle cx="148.7" cy="306.1" r="15.8" style="fill:rgb(252,131,99);stroke:rgb(64,64,64);stroke-width:4px;stroke-linecap:round;stroke-linejoin:round;"/>
    <path d="M536.5,398.4C536.5,415.4 522.7,429.2 505.7,429.2M706.7,398.4C706.7,415.4 720.5,429.2 737.5,429.2L760.5,429.2M568.1,367.6L567.2,367.6C550.2,367.6 536.4,381.4 536.4,398.4M706.7,398.4C706.7,381.4 692.9,367.6 675.9,367.6L568.1,367.6" style="fill:none;fill-rule:nonzero;stroke:rgb(64,64,64);stroke-width:4px;"/>
    <circle cx="645" cy="367.6" r="15.8" style="fill:rgb(76,211,214);stroke:rgb(64,64,64);stroke-width:4px;stroke-linejoin:round;"/>
    <circle cx="598.2" cy="367.6" r="15.8" style="fill:rgb(76,211,214);stroke:rgb(64,64,64);stroke-width:4px;stroke-linejoin:round;"/>
    <path d="M148.7,444.9L148.7,536.4M164.5,305.7L211.7,305.7M645,351.9L645,260.4" style="fill:none;fill-rule:nonzero;stroke:rgb(64,64,64);stroke-width:4px;"/>
    <rect x="283.5" y="5.2" width="96.2" height="50" style="fill:rgb(76,211,214);stroke:rgb(64,64,64);stroke-width:4px;stroke-linecap:round;stroke-linejoin:round;"/>
    <rect x="421.3" y="5.2" width="96.2" height="50" style="fill:rgb(177,139,232);stroke:rgb(64,64,64);stroke-width:4px;stroke-linecap:round;stroke-linejoin:round;"/>
    <rect x="8" y="5.2" width="96.2" height="50" style="fill:rgb(179,227,255);stroke:rgb(64,64,64);stroke-width:4px;stroke-linecap:round;stroke-linejoin:round;"/>
    <rect x="559.1" y="5.2" width="96.2" height="50" style="fill:rgb(78,209,161);stroke:rgb(64,64,64);stroke-width:4px;stroke-linecap:round;stroke-linejoin:round;"/>
    <g transform="matrix(1,0,0,1,26.6434,37.9316)">
        <text x="0px" y="0px" style="font-family:'ArialMT', 'Arial', sans-serif;font-size:24px;">Main</text>
    </g>
    <g transform="matrix(1,0,0,1,162.371,38.6899)">
        <text x="0px" y="0px" style="font-family:'ArialMT', 'Arial', sans-serif;font-size:24px;">Hotﬁx</text>
    </g>
    <g transform="matrix(1,0,0,1,286.346,36.9838)">
        <text x="0px" y="0px" style="font-family:'ArialMT', 'Arial', sans-serif;font-size:24px;">Release</text>
    </g>
    <g transform="matrix(1,0,0,1,423.78,38.8794)">
        <text x="0px" y="0px" style="font-family:'ArialMT', 'Arial', sans-serif;font-size:24px;">Develop</text>
    </g>
    <g transform="matrix(1,0,0,1,564.057,36.9838)">
        <text x="0px" y="0px" style="font-family:'ArialMT', 'Arial', sans-serif;font-size:24px;">Feature</text>
    </g>
    <g transform="matrix(1,0,0,1,125.112,0.758256)">
        <rect x="559.1" y="5.2" width="96.2" height="50" style="fill:rgb(78,209,161);stroke:rgb(64,64,64);stroke-width:4px;stroke-linecap:round;stroke-linejoin:round;"/>
    </g>
    <g transform="matrix(1,0,0,1,689.169,37.7421)">
        <text x="0px" y="0px" style="font-family:'ArialMT', 'Arial', sans-serif;font-size:24px;">Feature</text>
    </g>
    <g transform="matrix(0.211607,0,0,1,575.872,-185.225)">
        <path d="M776.2,429.1L179.9,429.1" style="fill:none;fill-rule:nonzero;stroke:rgb(64,64,64);stroke-width:4px;"/>
    </g>
    <circle cx="645" cy="244.6" r="15.8" style="fill:rgb(179,227,255);stroke:rgb(64,64,64);stroke-width:4px;"/>
    <g transform="matrix(1,0,0,1,-44.5475,9.4782)">
        <rect x="49" y="139.1" width="42.5" height="37.5" style="fill:rgb(179,227,255);stroke:rgb(64,64,64);stroke-width:4px;stroke-linecap:round;stroke-linejoin:round;"/>
    </g>
    <g transform="matrix(1,0,0,1,-44.5475,9.4782)">
        <path d="M62.6,162.4L61.4,162.4L58.9,156.1L60.3,156.1L62.1,160.9L63.9,156.1L65.2,156.1L62.6,162.4ZM67.3,155.1C67.8,154.3 68.7,153.7 69.9,153.7C71.1,153.7 71.9,154.2 72.5,155.1C73.1,155.9 73.3,157 73.3,158.2C73.3,159.4 73.1,160.4 72.5,161.3C72,162.1 71.1,162.7 69.9,162.7C68.7,162.7 67.9,162.2 67.3,161.3C66.7,160.5 66.5,159.4 66.5,158.2C66.5,157 66.7,155.9 67.3,155.1ZM68.5,160.9C68.8,161.2 69.2,161.4 69.8,161.4C70.4,161.4 70.8,161.2 71.1,160.9C71.6,160.4 71.8,159.5 71.8,158.2C71.8,156.9 71.6,156 71.1,155.5C70.8,155.2 70.4,155 69.8,155C69.2,155 68.8,155.2 68.5,155.5C68,156 67.8,156.9 67.8,158.2C67.8,159.5 68,160.3 68.5,160.9ZM75.8,160.6C76.3,160.6 76.7,161 76.7,161.5C76.7,162 76.3,162.4 75.8,162.4C75.3,162.4 74.9,162 74.9,161.5C74.9,161 75.3,160.6 75.8,160.6ZM79.7,162.4L79.7,156.5L77.7,156.5L77.7,155.6C78.9,155.6 79.7,154.9 79.9,154L81,154L81,162.4L79.7,162.4Z" style="fill:rgb(64,64,64);fill-rule:nonzero;"/>
    </g>
    <g transform="matrix(1,0,0,1,-44.5475,9.4782)">
        <path d="M70.3,210.7L70.3,193.1M78.5,204.2L70.3,212.4L62.2,204.2" style="fill:none;fill-rule:nonzero;stroke:rgb(64,64,64);stroke-width:4px;stroke-linecap:round;stroke-linejoin:round;"/>
    </g>
</svg>
